<svg version="1.1" id="Layer_1" xmlns="http://www.w3.org/2000/svg" xmlns:xlink="http://www.w3.org/1999/xlink" x="0px" y="0px"
	 width="100%" viewBox="0 0 231 98" enable-background="new 0 0 231 98" xml:space="preserve">
<path fill="#9BEBF7" opacity="1.000000" stroke="none" 
	d="
M208.264587,98.677979 
	C140.390961,99.000000 72.781822,98.956696 5.173147,99.114227 
	C1.365947,99.123093 0.898775,98.086121 0.915372,94.679710 
	C1.061413,64.705971 1.053214,34.730984 0.920139,4.757122 
	C0.906380,1.658134 1.590624,0.913957 4.736973,0.918881 
	C72.845421,1.025471 140.954071,1.000000 209.531342,1.000000 
	C213.902725,6.579278 217.254639,12.293269 218.058655,19.349293 
	C219.239380,29.711273 220.779510,40.001934 220.660782,50.495571 
	C220.468765,67.470093 214.503586,82.894279 208.264587,98.677979 
z"/>
<path fill="#9FF1FF" opacity="1.000000" stroke="none" 
	d="
M208.458069,99.000000 
	C206.745743,93.223343 209.985397,88.359962 211.972733,83.586868 
	C217.096069,71.281898 218.934021,58.464684 218.808823,45.454262 
	C218.712265,35.420586 217.288620,25.343149 215.704681,15.404762 
	C214.941269,10.614821 210.464310,6.952254 210.012253,1.383950 
	C214.356903,1.000000 218.713806,1.000000 223.535355,1.000000 
	C226.954453,2.718534 224.977997,7.324286 228.823517,8.851039 
	C230.242081,9.534616 230.776886,10.613135 231.755798,11.750999 
	C232.000000,12.444445 232.000000,12.888889 232.000000,13.666667 
	C230.712341,15.879747 230.496536,18.130133 230.587173,20.205307 
	C230.838013,25.947218 230.205338,31.746195 231.758698,37.714664 
	C232.000000,39.388889 232.000000,40.777779 232.000000,42.583336 
	C229.785400,48.849949 230.797028,55.015827 230.842941,60.955612 
	C230.881165,65.899849 229.984940,70.364464 228.384827,75.242134 
	C227.386215,81.191216 223.678772,86.026756 224.386124,92.154427 
	C224.726257,95.100830 221.855499,96.927635 219.247345,98.757797 
	C215.638718,99.000000 212.277420,99.000000 208.458069,99.000000 
z"/>
<path fill="#A6EEFF" opacity="1.000000" stroke="none" 
	d="
M219.437500,99.000000 
	C219.070633,97.132217 220.536270,96.155853 221.562057,94.873077 
	C222.269775,93.988068 223.481003,92.543304 223.200211,91.977943 
	C220.130386,85.796989 226.493393,81.619576 226.689102,76.068855 
	C228.159760,74.658890 228.856232,72.503113 231.678909,73.761719 
	C232.000000,74.444443 232.000000,74.888893 232.000000,75.666672 
	C230.972610,78.398224 230.448776,80.753189 230.725372,83.503807 
	C231.032883,86.561584 230.195251,89.664909 227.861603,92.434769 
	C227.282959,93.218895 226.903793,93.739655 226.513885,94.632599 
	C225.956512,96.064735 224.510040,97.137444 226.097565,98.694199 
	C223.958328,99.000000 221.916672,99.000000 219.437500,99.000000 
z"/>
<path fill="#AAFFFF" opacity="1.000000" stroke="none" 
	d="
M225.814026,92.218712 
	C229.050156,89.918274 229.970520,85.907578 229.242630,83.532982 
	C228.151962,79.974876 229.875031,78.490578 231.745895,76.210922 
	C232.000000,82.058708 231.616837,88.149895 232.126709,94.165382 
	C232.503937,98.615616 230.920135,99.729012 226.499481,99.000000 
	C223.555023,98.051041 223.745636,96.454330 224.960526,94.306580 
	C225.468628,93.583351 225.487366,92.986420 225.814026,92.218712 
z"/>
<path fill="#A7EFFF" opacity="1.000000" stroke="none" 
	d="
M232.000000,73.531342 
	C230.146896,73.658211 229.086853,75.168480 227.336700,75.926399 
	C230.072876,66.451233 229.460342,56.524582 230.003860,46.716415 
	C230.075012,45.432789 229.786041,44.017479 231.626984,43.117134 
	C232.000000,53.020893 232.000000,63.041790 232.000000,73.531342 
z"/>
<path fill="#A6F0FF" opacity="1.000000" stroke="none" 
	d="
M232.000000,37.531364 
	C231.163773,37.827644 230.115906,37.489891 230.159134,36.632782 
	C230.533234,29.215063 226.560135,21.549553 231.686493,14.191740 
	C232.000000,21.687576 232.000000,29.375153 232.000000,37.531364 
z"/>
<path fill="#AAFFFF" opacity="1.000000" stroke="none" 
	d="
M232.000000,11.517044 
	C230.879044,11.935043 229.945694,11.521026 229.154480,10.275770 
	C226.990936,7.568963 226.581985,4.508989 225.849442,1.318089 
	C231.393692,-0.263503 232.952957,2.158696 232.034515,7.153382 
	C231.804047,8.406687 232.000000,9.738404 232.000000,11.517044 
z"/>
<path fill="#A7EFFF" opacity="1.000000" stroke="none" 
	d="
M225.666672,1.000000 
	C228.051987,3.402385 229.486115,6.032397 229.036499,9.670151 
	C225.884567,10.144980 223.910324,9.287595 224.536194,5.538762 
	C224.737488,4.332955 224.211838,3.005783 224.009384,1.367067 
	C224.444443,1.000000 224.888901,1.000000 225.666672,1.000000 
z"/>
<path fill="#6EAA30" opacity="1.000000" stroke="none" 
	d="
M56.777954,24.353029 
	C57.062042,22.645809 57.121922,21.236633 57.309685,19.422791 
	C57.810673,18.677591 58.246044,18.489529 59.109520,18.571728 
	C62.318188,20.586254 63.300789,23.953373 65.459419,26.428146 
	C69.064560,30.561298 73.220520,34.029140 77.696632,37.151020 
	C79.321587,38.284351 80.950378,39.421379 82.011208,41.603096 
	C82.844856,45.299557 85.777290,44.066948 87.715225,44.385284 
	C90.792618,44.890789 92.952484,45.964417 93.362984,49.670990 
	C93.291779,50.528763 93.168831,51.000793 92.774666,51.758354 
	C90.340355,53.918064 88.166931,52.738003 86.026512,51.875820 
	C82.066795,50.280815 78.167511,48.523846 73.972061,47.575527 
	C77.216713,49.948803 80.782333,51.597340 84.635345,52.662922 
	C86.703102,53.234772 88.909042,53.579086 90.485298,55.814148 
	C90.932404,57.564659 90.323738,58.576042 88.866440,59.510693 
	C86.087852,59.979500 83.648178,59.771805 81.180786,59.619850 
	C82.780525,60.254494 84.576698,60.311737 86.294289,61.582577 
	C87.808212,63.552303 88.067558,65.530960 88.008362,67.939575 
	C87.727814,69.655167 86.576920,70.412010 85.851807,71.477829 
	C88.016434,71.021629 89.507866,69.649887 91.156937,67.842438 
	C95.646744,65.895103 96.697708,62.425892 96.421608,58.365791 
	C96.230812,55.560242 96.976913,53.155685 98.821655,51.087482 
	C99.723534,50.076351 100.839691,49.229580 102.269516,49.605206 
	C103.983772,50.055569 104.536171,51.565632 104.424438,53.091076 
	C104.112236,57.353550 104.029846,61.628471 103.597130,66.297630 
	C103.437332,67.537010 103.426254,68.384804 102.758240,69.491547 
	C102.118591,70.679855 101.685349,71.503357 101.098480,72.640686 
	C100.811089,73.077789 100.677315,73.201050 100.307175,73.450981 
	C99.918663,73.665070 99.766518,73.752487 99.405045,73.991661 
	C99.067345,74.255219 98.938972,74.367020 98.592766,74.606018 
	C98.374924,74.733208 97.904922,74.901489 97.414139,74.878372 
	C94.523491,74.327896 93.066307,76.319069 91.157768,77.079155 
	C84.290154,79.814201 78.886650,78.789925 74.052238,73.336288 
	C72.136375,70.964661 70.602081,68.508530 70.827972,65.918716 
	C71.215073,61.480614 68.956665,59.586090 64.956818,58.351791 
	C64.420807,58.138165 64.215759,58.029705 63.734238,57.709633 
	C62.151546,56.100239 61.557098,54.410965 61.223709,52.258392 
	C59.596626,47.620171 59.122227,43.246716 61.317520,39.000416 
	C62.067638,37.549484 61.894348,36.686958 60.622025,35.650864 
	C57.859898,33.401577 56.999725,30.244087 56.937172,26.415663 
	C56.642342,25.620512 56.509933,25.163372 56.777954,24.353029 
z"/>
<path fill="#6FAB32" opacity="1.000000" stroke="none" 
	d="
M124.736206,21.504940 
	C127.828964,19.725340 130.632950,17.941345 133.795273,16.854736 
	C134.991287,16.443771 136.373856,15.436699 137.514114,16.557257 
	C138.820038,17.840591 137.449142,19.024706 136.773911,20.027206 
	C135.851196,21.397125 135.594803,22.654472 136.314056,24.189651 
	C139.363541,30.698599 138.627701,37.073711 135.440445,43.913929 
	C134.880081,44.610634 134.391891,44.635647 133.555786,44.424194 
	C131.214188,42.669758 128.953094,43.166508 126.698204,43.460232 
	C124.762627,43.712368 122.818748,43.832108 120.637512,42.899811 
	C118.645889,40.249012 120.851608,39.138851 122.167587,37.877850 
	C125.226128,34.947071 128.273392,32.015381 131.582626,28.347275 
	C124.011345,32.444530 118.540993,38.136536 111.879890,42.812477 
	C108.138885,42.920975 107.275131,40.853588 108.590973,38.329247 
	C109.867340,35.880630 110.450699,32.911602 113.207565,30.927082 
	C114.839935,29.417858 116.326675,28.286358 117.751541,26.594179 
	C118.286720,26.000664 118.609612,25.677969 119.193336,25.132862 
	C121.350281,24.105965 122.289223,21.931007 124.736206,21.504940 
z"/>
<path fill="#E9E20F" opacity="1.000000" stroke="none" 
	d="
M94.789871,17.500244 
	C97.339180,16.107058 95.966278,11.615249 98.579727,12.021767 
	C101.103394,12.414320 100.176186,16.280573 101.402809,18.395601 
	C103.544075,16.760277 102.318672,12.170471 105.484825,12.364843 
	C107.548347,12.491525 106.624466,16.075150 107.164009,18.092144 
	C109.689278,17.666059 109.421745,13.866770 112.617599,14.010225 
	C113.958954,14.760816 114.261040,15.724163 114.396408,17.165356 
	C114.619690,19.242414 113.517075,20.875179 114.239708,22.963245 
	C114.498222,24.345156 114.427612,25.360426 114.238724,26.759789 
	C111.726639,31.582197 111.161552,37.273815 105.361511,39.695694 
	C98.002861,34.029537 94.600800,26.700420 94.789871,17.500244 
z"/>
<path fill="#6EAA31" opacity="1.000000" stroke="none" 
	d="
M109.259407,76.222710 
	C108.026756,74.500732 107.057716,73.001167 105.971245,71.185104 
	C105.180183,69.641006 104.783768,68.327713 104.595901,66.582367 
	C104.382271,64.985870 104.537354,63.790154 105.266907,62.337418 
	C105.842590,61.699696 106.266533,61.475018 107.111557,61.384045 
	C109.083786,61.728893 109.875633,63.533474 111.896896,63.822906 
	C112.792053,64.121391 113.082207,64.935646 113.854126,64.702957 
	C113.728378,64.439583 113.619690,64.143692 113.522293,63.473991 
	C113.879990,61.400719 114.993965,60.214424 116.396416,59.270226 
	C119.742172,57.017708 122.343842,57.812454 123.728889,61.561363 
	C124.297005,63.099056 124.472267,64.783333 125.660728,66.492859 
	C126.216202,67.505173 126.501457,68.213188 126.649750,69.352097 
	C126.556534,69.967598 126.465683,70.203011 126.059219,70.647308 
	C121.425591,74.140213 116.473961,75.286896 110.852058,75.483276 
	C110.371056,76.256393 110.020065,76.464569 109.259407,76.222710 
z"/>
<path fill="#6FAB35" opacity="1.000000" stroke="none" 
	d="
M61.023514,17.872942 
	C66.646454,18.863241 71.216698,21.844244 76.478241,24.110939 
	C78.363419,24.518213 79.960876,24.637449 81.657806,25.614222 
	C82.570404,25.962843 83.117973,26.314354 84.015823,26.655956 
	C84.502663,26.840755 84.691307,26.926651 85.147125,27.165848 
	C85.918724,27.644915 86.338005,28.080393 87.099228,28.532812 
	C87.537964,28.733784 87.709457,28.821560 88.126266,29.058964 
	C88.685867,29.420565 88.995140,29.639603 89.532745,30.021881 
	C90.071297,30.392794 90.376862,30.607031 90.917740,30.974781 
	C91.305664,31.237854 91.458855,31.346611 91.833450,31.629536 
	C92.457100,32.204407 92.906143,32.538486 93.677979,32.914879 
	C94.084702,33.175846 94.241791,33.290356 94.615852,33.601540 
	C95.354156,34.368576 95.715378,35.086872 96.674927,35.641273 
	C97.116669,35.894699 97.289520,36.007622 97.714256,36.308372 
	C98.302063,36.766953 98.625595,37.051857 99.175858,37.588230 
	C100.457367,39.070377 101.709366,40.203671 101.523819,42.382729 
	C97.437698,46.873035 94.784569,42.561707 91.312515,41.191154 
	C88.273468,41.024620 86.394936,39.303127 84.515152,37.702072 
	C77.694557,31.892832 70.927544,26.023600 63.078445,21.581459 
	C62.212917,21.091616 61.498451,20.374088 60.835388,19.165150 
	C60.712032,18.579578 60.720745,18.335506 61.023514,17.872942 
z"/>
<path fill="#E7E213" opacity="1.000000" stroke="none" 
	d="
M85.199356,28.287354 
	C84.779739,28.045973 84.593056,27.991808 84.137314,27.825287 
	C83.700188,27.578337 83.532127,27.443739 83.102661,27.118774 
	C81.357254,25.774078 79.001274,25.759254 78.249390,23.195515 
	C78.318047,21.084272 76.762688,18.365686 78.827591,17.693878 
	C80.813828,17.047665 81.466385,20.023558 82.814331,21.755264 
	C83.202148,22.354910 83.501015,22.484018 84.076492,22.239330 
	C84.172340,19.533262 82.382385,15.860028 84.772064,14.800905 
	C87.365387,13.651528 87.172379,18.331738 89.585899,19.654345 
	C89.842346,18.094831 90.082359,16.635275 90.556992,14.975047 
	C91.264091,14.934214 91.876984,15.090226 92.026016,15.528358 
	C94.123993,21.696182 97.175117,27.572947 97.585983,34.541164 
	C96.305077,35.842991 95.442390,35.172104 94.285797,34.241158 
	C93.993477,33.969086 93.991096,34.010590 94.011429,34.006287 
	C93.252373,33.324528 92.185097,33.118744 91.215172,32.186298 
	C91.005913,31.961990 90.996452,32.004173 91.016556,31.996237 
	C90.710800,31.749220 90.364029,31.546278 89.758667,31.193493 
	C89.222351,30.728834 88.880661,30.519503 88.267792,30.175591 
	C88.031128,29.985729 88.010139,29.990025 88.008949,29.979435 
	C87.234886,29.323181 86.206993,29.117054 85.199356,28.287354 
z"/>
<path fill="#374E4D" opacity="1.000000" stroke="none" 
	d="
M97.420181,35.844322 
	C95.552521,29.225481 92.115547,22.702045 90.841499,15.113006 
	C91.153618,12.896820 89.723839,11.776053 88.994865,10.335940 
	C88.303162,8.969448 88.105202,7.337651 89.410690,6.217108 
	C90.373856,5.390386 91.672745,4.470237 93.015648,5.099819 
	C94.650459,5.866258 94.288841,7.513713 94.279144,9.010377 
	C94.262245,11.618565 94.426086,14.227924 94.788887,17.025400 
	C96.643654,25.029329 99.263779,32.360104 105.051010,38.592346 
	C104.802940,39.620949 104.128067,39.967400 102.965363,40.193771 
	C101.510223,40.215023 100.693253,39.633312 99.587326,38.824310 
	C98.700958,38.225742 98.220917,37.679802 97.297958,37.151360 
	C97.036552,36.916660 97.019699,36.986671 97.055206,36.992680 
	C96.645439,36.488564 96.662430,35.994247 97.420181,35.844322 
z"/>
<path fill="#C49F1E" opacity="1.000000" stroke="none" 
	d="
M137.741119,51.159523 
	C140.226822,51.436386 143.678665,49.720673 144.531052,52.213791 
	C145.381042,54.699883 141.655365,55.495277 139.470627,56.977642 
	C137.294052,58.212139 135.442154,57.826599 133.225006,56.904819 
	C129.504288,51.889664 129.702820,50.129200 134.455048,45.251984 
	C134.996735,44.866310 135.211761,44.710289 135.728424,44.293900 
	C136.030090,44.033535 135.985504,44.007374 135.978516,44.031746 
	C136.123703,44.122589 136.270874,44.205727 136.428787,44.252995 
	C138.392029,44.840641 141.267929,42.361389 142.208618,44.801434 
	C143.010574,46.881695 140.002975,48.105286 138.269684,49.793922 
	C137.762299,50.268902 137.615402,50.585426 137.741119,51.159523 
z"/>
<path fill="#CC522E" opacity="1.000000" stroke="none" 
	d="
M70.254745,72.334396 
	C64.878059,71.826424 59.706459,71.754219 54.765461,70.157654 
	C51.546726,69.117607 51.344940,67.782372 54.863815,66.185738 
	C59.554707,62.589375 64.425957,63.995167 69.672134,64.825188 
	C72.240128,66.687645 72.131401,68.911026 71.436157,71.655975 
	C71.212440,72.087791 71.088402,72.048485 71.056976,72.105453 
	C70.858269,72.230347 70.690987,72.298271 70.254745,72.334396 
z"/>
<path fill="#344D52" opacity="1.000000" stroke="none" 
	d="
M112.857788,27.158382 
	C112.737923,25.884083 112.914917,24.915569 113.102913,23.577129 
	C113.036499,22.412523 112.983826,21.618402 113.277489,20.561256 
	C113.604370,19.819622 114.085579,19.385439 113.557388,18.511478 
	C113.506035,18.005472 113.504631,17.797350 113.503021,17.269468 
	C113.521530,15.839959 113.451469,14.728106 113.803741,13.363468 
	C114.101585,12.917439 114.177467,12.728950 114.380325,12.263386 
	C114.453674,11.175443 114.543442,10.361248 114.358017,9.261106 
	C114.045296,7.580740 113.223976,6.002612 114.956451,5.064996 
	C115.864769,4.573414 116.771278,5.167203 117.696365,5.621106 
	C119.546753,6.529026 119.388481,8.170956 118.850906,9.397416 
	C118.019661,11.293942 117.805634,13.163977 117.928932,15.575781 
	C118.394447,19.241600 118.243431,22.438053 117.100967,25.944935 
	C116.542923,26.757610 116.118225,27.123304 115.223785,27.554554 
	C114.245033,27.771215 113.689247,27.693003 112.857788,27.158382 
z"/>
<path fill="#D07621" opacity="1.000000" stroke="none" 
	d="
M70.420105,65.596344 
	C65.491005,65.956947 60.787243,65.989975 55.627415,66.034271 
	C55.179733,64.411163 50.981731,64.725403 53.598175,61.989452 
	C54.629581,61.345303 55.537086,61.563660 56.679970,61.335678 
	C57.712845,61.109753 58.444752,61.005695 59.547806,60.904469 
	C62.233383,59.982441 64.624908,59.494274 67.508705,59.679146 
	C68.138763,59.797798 68.387527,59.872131 68.993179,60.114506 
	C69.789673,60.589417 70.163124,60.962624 70.644279,61.762737 
	C70.992653,63.185215 71.043694,64.239258 70.420105,65.596344 
z"/>
<path fill="#C2492C" opacity="1.000000" stroke="none" 
	d="
M139.148041,65.289352 
	C139.847336,65.288261 140.176361,65.386841 140.713928,65.642166 
	C141.849533,66.946243 143.232788,66.825172 144.481949,67.119606 
	C145.726486,67.412941 146.709335,67.960472 145.355865,69.630539 
	C139.318832,71.738525 133.494598,72.598503 127.133965,71.203651 
	C126.755539,70.499519 126.722015,70.284401 126.821442,69.768478 
	C127.312065,68.893723 127.784248,68.414696 128.476608,67.662766 
	C129.383606,66.672623 130.186172,66.141228 131.486237,65.716782 
	C134.157272,65.378029 136.477234,65.659454 139.148041,65.289352 
z"/>
<path fill="#D09A21" opacity="1.000000" stroke="none" 
	d="
M68.334885,60.482697 
	C65.689659,60.477802 63.215790,62.668159 60.197800,61.169319 
	C59.229767,59.007549 57.149910,58.824989 55.898949,57.638069 
	C54.893723,56.684299 52.547714,56.136826 54.729668,53.867126 
	C56.045994,53.387371 57.132664,53.526680 58.607903,53.612770 
	C59.436714,53.835770 59.868145,53.976707 60.603901,54.271381 
	C61.994110,54.852318 62.701256,55.748863 63.738644,56.767590 
	C63.969780,57.012585 63.990337,57.010651 63.991447,57.020897 
	C65.425148,58.078003 67.329712,58.470261 68.334885,60.482697 
z"/>
<path fill="#C69326" opacity="1.000000" stroke="none" 
	d="
M132.676483,56.330307 
	C134.845062,56.041454 136.712402,55.798180 138.774460,56.899723 
	C140.464874,59.068779 142.773438,58.028599 144.537079,58.762566 
	C146.251160,59.475903 147.427185,60.055573 145.110855,61.831772 
	C140.930481,62.313931 137.045395,63.917847 132.854156,61.469368 
	C131.559830,59.692848 131.539703,58.192989 132.676483,56.330307 
z"/>
<path fill="#8EB9CA" opacity="1.000000" stroke="none" 
	d="
M139.389435,84.596100 
	C138.698090,85.176514 138.188354,85.517281 137.388367,85.958908 
	C136.819824,85.915230 136.787521,85.617607 136.646072,85.415840 
	C136.400864,85.066040 136.225174,85.171120 136.174927,85.731964 
	C135.388474,86.291290 134.761307,86.698898 133.847443,87.059135 
	C133.347870,87.078796 133.135010,87.145828 132.601822,87.308075 
	C132.095139,87.282227 131.908752,87.161156 131.572174,86.743164 
	C131.177536,85.569199 131.496948,84.720589 131.598022,83.546051 
	C131.814011,82.631050 131.955795,82.023926 131.927505,81.083282 
	C133.125687,75.622917 136.576263,78.781471 139.524765,78.787201 
	C140.022888,78.873802 140.184845,78.992088 140.445282,79.396194 
	C140.555359,79.883598 140.566986,80.085197 140.548233,80.587608 
	C140.283707,82.066673 140.141220,83.269943 139.389435,84.596100 
z"/>
<path fill="#94C7D7" opacity="1.000000" stroke="none" 
	d="
M63.230690,80.779907 
	C65.549057,81.010681 67.660233,81.472626 70.170410,81.921890 
	C71.056503,81.899124 71.468246,82.070305 71.923874,82.752731 
	C72.040932,83.488091 72.038773,83.893394 72.028107,84.602570 
	C72.064331,85.585884 71.901306,86.193573 71.113861,86.834328 
	C70.143997,87.230476 69.465294,87.478477 68.207382,87.855011 
	C67.462212,88.004990 67.296242,88.026428 66.916054,88.179146 
	C66.585655,88.431190 66.469475,88.551964 66.187111,88.861313 
	C66.020920,89.049904 65.996429,89.003403 66.017792,89.018517 
	C65.361282,89.571213 64.928497,89.095963 64.357666,88.372406 
	C63.919369,87.864311 63.610104,87.641762 63.144936,87.176331 
	C62.188515,86.092194 62.177826,85.063522 62.366333,83.703156 
	C62.501617,82.993439 62.560677,82.584717 62.684986,81.872963 
	C62.843967,81.384026 62.933727,81.197548 63.230690,80.779907 
z"/>
<path fill="#C67F2B" opacity="1.000000" stroke="none" 
	d="
M132.454376,61.254189 
	C136.594055,61.266582 140.387680,60.390217 144.436920,61.758320 
	C143.161148,62.791618 141.521439,63.662109 139.720459,64.804573 
	C137.558472,66.259811 135.381088,66.028122 132.765472,65.727905 
	C130.759872,64.319969 130.902328,62.941242 132.454376,61.254189 
z"/>
<path fill="#ADD2C4" opacity="1.000000" stroke="none" 
	d="
M68.528152,60.848652 
	C66.926598,59.778908 65.493553,58.736656 64.026535,57.362778 
	C70.658020,58.227276 71.657906,59.356640 72.272552,65.498581 
	C72.501274,67.784134 73.254822,70.017159 73.814522,72.660797 
	C73.164764,72.758003 72.469536,72.468552 71.493378,72.133446 
	C70.981369,70.266541 70.750298,68.445282 70.356995,66.273972 
	C70.220261,64.866898 70.245758,63.809887 70.194489,62.362259 
	C69.821358,61.826355 69.566650,61.627674 69.171432,61.213882 
	C68.989288,61.052170 68.696671,60.876144 68.528152,60.848652 
z"/>
<path fill="#584B6A" opacity="1.000000" stroke="none" 
	d="
M63.799576,81.899353 
	C64.642494,83.603142 63.511078,84.766472 63.059383,86.513519 
	C61.287544,83.803993 57.175022,84.946014 54.212521,81.850693 
	C57.076004,82.323982 60.242661,84.375015 59.682724,79.476349 
	C59.592274,78.909073 59.709049,78.762840 60.088493,78.515938 
	C60.914291,78.319412 61.461296,78.468697 62.291542,78.525276 
	C62.751396,78.555244 62.934151,78.584557 63.221825,78.870926 
	C63.575554,79.406418 63.624031,79.716187 63.455032,80.302994 
	C63.437885,80.548729 63.557995,80.769905 63.683144,80.783157 
	C63.557739,81.070930 63.475445,81.384682 63.799576,81.899353 
z"/>
<path fill="#8092A7" opacity="1.000000" stroke="none" 
	d="
M79.687508,88.114166 
	C82.605972,84.415642 85.269691,87.312622 87.812271,88.192841 
	C88.457809,88.416321 87.685677,91.264191 87.089577,90.703400 
	C83.863052,87.668007 81.795082,90.885422 79.056534,91.420654 
	C78.780205,90.591049 78.677902,89.984436 79.005966,89.117409 
	C79.276299,88.690712 79.401558,88.531433 79.687508,88.114166 
z"/>
<path fill="#757C95" opacity="1.000000" stroke="none" 
	d="
M111.739426,87.264969 
	C113.077141,85.937080 114.363434,89.777100 115.522652,86.836426 
	C115.733131,86.302521 116.914719,86.757355 116.833817,87.469193 
	C116.664093,88.962738 117.851028,90.864052 115.977432,91.873917 
	C115.049820,92.373878 113.817085,92.307739 112.526123,92.257622 
	C111.087471,90.702110 110.314400,89.300598 111.739426,87.264969 
z"/>
<path fill="#77849C" opacity="1.000000" stroke="none" 
	d="
M92.358521,92.698906 
	C91.894104,92.894768 91.718033,92.933067 91.272568,92.993500 
	C89.990112,91.409065 91.085579,90.042778 91.750427,88.292572 
	C93.029121,87.024986 94.063782,86.064445 95.576675,84.659943 
	C96.448250,87.768280 94.638275,89.976974 94.176834,92.583328 
	C93.511826,92.590134 93.091606,92.507805 92.358521,92.698906 
z"/>
<path fill="#D1D83C" opacity="1.000000" stroke="none" 
	d="
M116.195793,26.285469 
	C116.691254,22.888288 117.223183,19.816017 117.870224,16.374504 
	C120.521500,17.793571 118.660896,20.202869 118.880386,22.687916 
	C119.056076,23.188269 119.228424,23.319555 119.520630,23.753590 
	C119.741989,25.007942 119.120796,25.676065 118.536301,26.701963 
	C118.193207,27.113972 118.024399,27.250969 117.529716,27.409966 
	C116.787476,27.267490 116.468254,26.988142 116.195793,26.285469 
z"/>
<path fill="#666583" opacity="1.000000" stroke="none" 
	d="
M70.780609,87.240158 
	C71.158913,86.442116 71.495132,85.901733 71.925476,85.133904 
	C74.160507,85.002357 77.007187,83.393005 77.441528,87.520500 
	C77.126984,87.959068 76.975601,88.095146 76.566589,88.067337 
	C75.931435,87.212265 75.801926,86.275490 74.405609,86.342361 
	C73.887131,86.437737 73.674561,86.480949 73.261078,86.780106 
	C72.065163,86.078224 71.948410,89.536011 70.780609,87.240158 
z"/>
<path fill="#94C7D7" opacity="1.000000" stroke="none" 
	d="
M132.216339,85.710251 
	C131.999039,86.178406 131.995071,86.354950 132.010910,86.795639 
	C132.169830,87.172630 132.308929,87.285484 132.253967,87.584145 
	C131.143768,88.946106 129.864716,89.048409 128.125885,88.958557 
	C125.677406,88.774323 126.848740,87.157448 126.523209,85.862930 
	C126.819237,84.345970 127.996201,84.815018 128.890869,84.150635 
	C129.569321,83.408279 130.014374,82.860886 130.656952,82.133072 
	C131.340729,82.036758 131.751648,82.262848 132.260208,82.934296 
	C132.507904,83.977028 132.506195,84.697716 132.216339,85.710251 
z"/>
<path fill="#94C7D7" opacity="1.000000" stroke="none" 
	d="
M140.850464,78.254730 
	C141.698898,78.002335 142.404755,77.989075 143.463318,77.961395 
	C145.234833,78.650963 145.551056,79.853348 145.153458,81.656067 
	C143.433716,82.920212 141.891449,83.826477 140.087555,84.813583 
	C139.290588,83.517128 139.523087,82.091530 139.803375,80.327042 
	C140.046021,79.975883 140.060867,79.994072 140.066986,79.982361 
	C140.527115,79.582581 140.674057,79.062531 140.850464,78.254730 
z"/>
<path fill="#A3E2CD" opacity="1.000000" stroke="none" 
	d="
M118.983185,23.993574 
	C118.750023,23.750811 118.710510,23.383020 118.797119,23.220001 
	C120.599197,23.004690 121.408554,21.846195 122.287315,20.556578 
	C123.175011,19.253839 124.344292,18.683254 125.044876,21.219986 
	C123.574234,22.966980 122.078125,24.356743 120.290108,25.874695 
	C119.351982,25.584702 119.322319,24.893633 118.983185,23.993574 
z"/>
<path fill="#584B6A" opacity="1.000000" stroke="none" 
	d="
M103.035400,90.054039 
	C102.504677,91.176689 102.049179,92.013039 101.557976,92.914925 
	C100.498718,90.729469 101.527298,88.357246 100.585243,86.134415 
	C102.194801,86.983459 103.408081,87.888313 103.035400,90.054039 
z"/>
<path fill="#C55B2B" opacity="1.000000" stroke="none" 
	d="
M131.389038,64.968155 
	C134.018280,64.934608 136.292236,64.988838 139.062683,65.059807 
	C139.559204,65.076546 139.544083,65.135933 139.531204,65.162811 
	C137.492706,68.028076 134.472778,66.653595 131.401764,66.996376 
	C130.376526,66.321449 130.499191,65.679276 131.389038,64.968155 
z"/>
<path fill="#314F4D" opacity="1.000000" stroke="none" 
	d="
M105.572601,66.741287 
	C106.520317,68.062683 106.984421,69.151695 105.991692,70.601967 
	C104.924507,70.612144 103.995193,70.355667 102.808853,69.977768 
	C102.455383,69.135429 102.358940,68.414513 102.309128,67.329941 
	C103.194923,66.021744 104.186699,66.020081 105.572601,66.741287 
z"/>
<path fill="#666583" opacity="1.000000" stroke="none" 
	d="
M118.197876,86.909599 
	C118.817345,85.870354 120.074188,85.521080 120.235802,86.157814 
	C120.676079,87.892365 120.366592,89.697136 119.201210,91.325394 
	C117.258278,90.117004 118.519241,88.509750 118.197876,86.909599 
z"/>
<path fill="#5C5274" opacity="1.000000" stroke="none" 
	d="
M128.946442,83.673050 
	C129.337769,85.146667 130.883423,86.172661 129.565247,87.556496 
	C128.239044,87.210114 128.182037,85.855537 127.262146,84.752724 
	C126.784950,84.514290 126.570030,84.501213 126.332542,84.165955 
	C126.029106,82.977814 125.472717,81.820297 126.615089,81.443108 
	C128.040894,80.972328 128.144592,82.609077 128.946442,83.673050 
z"/>
<path fill="#CFB53D" opacity="1.000000" stroke="none" 
	d="
M56.469658,46.339661 
	C59.216686,46.658424 57.987095,48.345474 58.230560,49.981998 
	C56.323795,49.105675 54.981236,48.447697 56.469658,46.339661 
z"/>
<path fill="#C55B2B" opacity="1.000000" stroke="none" 
	d="
M145.358521,69.750885 
	C145.627106,66.579445 141.418152,68.738075 141.081360,66.098572 
	C142.620377,65.567085 144.169815,66.060516 145.632858,66.840652 
	C147.304535,67.732040 147.245941,68.722229 145.358521,69.750885 
z"/>
<path fill="#8EB9CA" opacity="1.000000" stroke="none" 
	d="
M75.992676,88.053680 
	C76.514343,87.798012 76.732292,87.740005 77.120605,87.776215 
	C77.851227,87.844124 78.424080,87.865250 79.422569,87.871277 
	C79.876366,88.038437 79.904518,88.220703 79.966522,88.677521 
	C79.545723,89.439407 79.079025,89.915115 78.379509,90.629173 
	C76.938103,90.766426 75.450569,91.647278 74.641960,90.122734 
	C74.155251,89.205101 75.074768,88.713745 75.992676,88.053680 
z"/>
<path fill="#A5DEB9" opacity="1.000000" stroke="none" 
	d="
M77.953033,23.146345 
	C79.840927,24.053205 81.545181,25.216246 83.341309,26.658354 
	C83.166260,27.330273 82.796761,27.462187 82.032486,27.252808 
	C80.218918,26.334988 78.711182,25.532206 77.009796,24.475784 
	C77.133911,23.948940 77.451653,23.675734 77.953033,23.146345 
z"/>
<path fill="#707590" opacity="1.000000" stroke="none" 
	d="
M107.683762,88.061203 
	C107.800583,89.366753 107.656776,90.818901 107.523087,92.168915 
	C105.915726,90.558067 105.915726,90.558067 107.683762,88.061203 
z"/>
<path fill="#90B5C7" opacity="1.000000" stroke="none" 
	d="
M144.833649,77.263115 
	C145.084656,76.944061 145.400116,76.892365 145.552719,76.939896 
	C145.871948,76.835686 146.038574,76.683945 146.541077,76.571091 
	C147.742874,77.393799 147.711060,78.686836 148.751785,79.746521 
	C148.209579,80.613731 147.434036,81.238297 146.361938,81.950195 
	C145.013321,80.738060 144.256378,79.340363 144.833649,77.263115 
z"/>
<path fill="#ADD2C4" opacity="1.000000" stroke="none" 
	d="
M64.179268,56.709942 
	C62.443626,57.157990 61.900829,55.891132 60.999542,54.716553 
	C60.929211,53.882240 60.950191,53.339359 60.997143,52.390316 
	C62.144993,53.458534 63.266872,54.932915 64.179268,56.709942 
z"/>
<path fill="#707590" opacity="1.000000" stroke="none" 
	d="
M147.016052,77.309914 
	C146.584961,77.024384 146.408966,77.025528 145.969147,77.007050 
	C145.821259,75.477463 144.428986,74.000557 145.550858,72.396317 
	C147.725662,72.987259 146.977753,75.100258 147.793427,76.708679 
	C147.636154,77.238068 147.453644,77.417328 147.016052,77.309914 
z"/>
<path fill="#707590" opacity="1.000000" stroke="none" 
	d="
M107.978760,87.970276 
	C108.419380,87.709785 108.849068,87.431000 109.549805,87.125916 
	C112.007042,88.222939 111.984253,89.764664 110.348442,91.783630 
	C107.912659,91.418373 109.630173,89.314529 108.259056,88.107338 
	C107.944389,87.914604 107.967819,87.951988 107.978760,87.970276 
z"/>
<path fill="#8CBA8A" opacity="1.000000" stroke="none" 
	d="
M98.683990,73.305153 
	C99.368881,73.045303 99.819946,73.031456 100.607941,72.986061 
	C100.436699,74.666031 99.412415,76.025108 97.784119,77.316147 
	C97.212769,77.531471 96.926270,77.596893 96.700539,77.225693 
	C96.859283,76.360123 96.957253,75.931160 96.989288,75.178726 
	C96.923355,74.855263 96.980415,74.909622 96.952690,74.937622 
	C97.221405,74.804489 97.471443,74.589401 97.827347,74.123589 
	C97.979630,73.926819 97.992706,73.991577 97.959900,73.987656 
	C98.101448,73.839546 98.275803,73.695351 98.683990,73.305153 
z"/>
<path fill="#707590" opacity="1.000000" stroke="none" 
	d="
M91.628433,88.080994 
	C91.698288,89.419327 91.402130,90.853142 91.054565,92.651291 
	C87.894287,91.231400 89.804893,89.716072 91.628433,88.080994 
z"/>
<path fill="#9BD7E5" opacity="1.000000" stroke="none" 
	d="
M110.414490,92.016647 
	C110.717735,90.589989 111.670883,89.175201 110.010971,87.383102 
	C110.298561,87.069016 110.776268,87.038414 111.612450,86.999748 
	C112.007530,88.515129 111.798027,90.074684 112.479843,91.749458 
	C111.818657,92.017723 111.307480,92.017937 110.414490,92.016647 
z"/>
<path fill="#6FAB35" opacity="1.000000" stroke="none" 
	d="
M59.262108,18.990032 
	C58.630299,19.002916 58.289467,19.007959 57.693100,19.015564 
	C57.274040,15.891573 58.973511,16.370497 61.096603,17.448036 
	C61.317566,17.654451 61.142361,17.851120 61.056057,17.950600 
	C60.590454,18.502018 60.167698,18.887901 59.262108,18.990032 
z"/>
<path fill="#8395AC" opacity="1.000000" stroke="none" 
	d="
M126.241425,84.244843 
	C126.538971,83.905136 126.723328,84.031532 126.931450,84.375153 
	C127.096100,85.802330 127.192345,87.077293 127.508682,88.652054 
	C123.887985,88.716957 127.026520,85.960167 126.241425,84.244843 
z"/>
<path fill="#5C5274" opacity="1.000000" stroke="none" 
	d="
M59.832481,78.896439 
	C59.463097,78.994553 59.431313,79.106888 59.453403,79.081100 
	C58.964264,79.282181 58.074528,79.711090 58.240627,78.781593 
	C58.422340,77.764740 58.727791,76.200256 60.836243,76.877991 
	C61.371864,77.859718 60.940189,78.405769 59.832481,78.896439 
z"/>
<path fill="#5C5274" opacity="1.000000" stroke="none" 
	d="
M136.278534,85.975082 
	C135.913559,84.402977 135.811493,82.922279 135.683380,81.063736 
	C137.494370,82.416550 136.936722,83.985809 137.162674,85.682251 
	C136.912552,86.062019 136.727005,86.064262 136.278534,85.975082 
z"/>
<path fill="#8395AC" opacity="1.000000" stroke="none" 
	d="
M72.342628,82.994415 
	C71.707878,82.833473 71.372673,82.584152 70.803436,82.122025 
	C71.414688,80.907913 72.450264,80.552704 73.389389,81.595963 
	C73.899673,82.162834 73.341843,82.713043 72.342628,82.994415 
z"/>
<path fill="#5C5274" opacity="1.000000" stroke="none" 
	d="
M144.785858,76.957428 
	C144.530853,78.589684 145.549911,79.876366 146.069336,81.656845 
	C145.883484,82.050858 145.701538,82.064178 145.247787,82.045731 
	C144.628616,80.894310 144.281235,79.774666 143.874939,78.301010 
	C144.039703,77.621590 144.263397,77.296188 144.785858,76.957428 
z"/>
<path fill="#8CBA8A" opacity="1.000000" stroke="none" 
	d="
M97.318680,77.292557 
	C96.905617,78.655441 96.129074,79.664932 94.584435,80.293449 
	C94.374908,78.711555 95.575920,78.047127 96.521027,76.967644 
	C96.886902,76.899078 97.012497,77.009079 97.318680,77.292557 
z"/>
<path fill="#584B6A" opacity="1.000000" stroke="none" 
	d="
M139.702820,79.946495 
	C140.029495,81.346939 140.012955,82.718002 139.911194,84.491745 
	C139.825943,84.894424 139.515778,84.875732 139.361786,84.855743 
	C139.775635,83.212166 137.221619,81.492233 139.702820,79.946495 
z"/>
<path fill="#5C5274" opacity="1.000000" stroke="none" 
	d="
M146.843979,77.387360 
	C146.937073,77.034439 147.113190,77.045639 147.553986,77.057816 
	C148.201477,77.821709 148.584274,78.584618 148.976105,79.668350 
	C147.061249,80.381790 147.084076,78.983902 146.843979,77.387360 
z"/>
<path fill="#A5DEB9" opacity="1.000000" stroke="none" 
	d="
M113.793640,13.226279 
	C114.075104,14.477208 114.124489,15.848485 114.083961,17.626659 
	C113.847038,18.218950 113.700043,18.404343 113.311508,18.329727 
	C113.001114,17.030611 112.932259,15.991503 112.910980,14.564550 
	C113.159561,13.900015 113.360565,13.623322 113.793640,13.226279 
z"/>
<path fill="#8CBA8A" opacity="1.000000" stroke="none" 
	d="
M109.098633,76.294685 
	C109.342842,75.959412 109.689896,75.918510 110.294861,75.831009 
	C111.082878,76.547424 111.612984,77.310463 112.024666,78.591011 
	C111.004654,78.268700 110.103058,77.428879 109.098633,76.294685 
z"/>
<path fill="#6D6C89" opacity="1.000000" stroke="none" 
	d="
M78.309776,90.957382 
	C78.159889,89.982765 78.213676,89.123886 79.678856,88.953857 
	C79.784538,89.568298 79.568726,90.184525 79.084671,90.998398 
	C78.816437,91.196045 78.473366,91.047722 78.309776,90.957382 
z"/>
<path fill="#6D6C89" opacity="1.000000" stroke="none" 
	d="
M132.253250,83.300644 
	C131.635452,82.814766 131.386642,82.595108 130.996155,82.164047 
	C131.061752,81.666748 131.269043,81.380836 131.691620,80.934708 
	C132.308273,81.256546 132.709641,81.738594 133.155457,82.542206 
	C133.007339,83.098137 132.814774,83.332504 132.253250,83.300644 
z"/>
<path fill="#CAE064" opacity="1.000000" stroke="none" 
	d="
M83.948807,22.084984 
	C84.743347,22.423014 84.883224,22.981949 84.436592,23.290478 
	C83.697990,23.800688 83.265808,23.257042 82.988159,22.314812 
	C83.187454,22.073925 83.404922,22.090702 83.948807,22.084984 
z"/>
<path fill="#ADD2C4" opacity="1.000000" stroke="none" 
	d="
M58.751301,53.513676 
	C57.932224,53.764828 56.859165,53.834824 55.388756,53.822632 
	C56.066193,52.797909 57.260632,52.883690 58.751301,53.513676 
z"/>
<path fill="#94C7D7" opacity="1.000000" stroke="none" 
	d="
M59.513161,79.370544 
	C59.955273,78.537354 60.447445,78.080154 61.028305,77.296494 
	C61.370941,76.985992 61.590492,77.081238 61.873978,77.409485 
	C62.160786,77.793228 62.349262,78.023247 62.319984,78.642555 
	C61.478882,80.062279 60.557327,80.033272 59.513161,79.370544 
z"/>
<path fill="#90B1C3" opacity="1.000000" stroke="none" 
	d="
M140.771545,78.082184 
	C141.153168,78.725464 141.999451,79.585922 140.321167,79.958710 
	C140.037048,79.768730 140.000977,79.566795 139.912903,79.060196 
	C140.045395,78.501892 140.275101,78.299644 140.771545,78.082184 
z"/>
<path fill="#51727F" opacity="1.000000" stroke="none" 
	d="
M114.276749,9.350600 
	C115.211632,9.651823 115.176865,10.560755 114.684181,11.760657 
	C114.434319,11.234299 114.361328,10.482284 114.276749,9.350600 
z"/>
<path fill="#D09A21" opacity="1.000000" stroke="none" 
	d="
M56.655857,61.158550 
	C56.171783,61.477268 55.362629,61.740730 54.222038,61.982388 
	C54.703995,61.674820 55.517384,61.389057 56.655857,61.158550 
z"/>
<path fill="#757C95" opacity="1.000000" stroke="none" 
	d="
M64.181412,88.402611 
	C64.667839,88.350502 65.107056,88.614143 65.792717,88.955711 
	C65.763458,89.325668 65.510338,89.834808 65.207535,89.866310 
	C64.490158,89.940918 64.171936,89.406387 64.181412,88.402611 
z"/>
<path fill="#757C95" opacity="1.000000" stroke="none" 
	d="
M66.337227,89.155960 
	C66.010605,88.872040 66.000290,88.694183 65.995132,88.249146 
	C66.373718,87.641808 66.816277,87.478317 67.657768,87.604202 
	C67.997398,87.741966 67.984787,87.922768 68.056175,87.979965 
	C67.636223,88.445450 67.144882,88.853737 66.337227,89.155960 
z"/>
<path fill="#6FAB35" opacity="1.000000" stroke="none" 
	d="
M56.870899,24.225437 
	C57.003532,24.490257 57.004910,24.925528 56.993217,25.687080 
	C56.899979,25.474203 56.819809,24.935045 56.870899,24.225437 
z"/>
<path fill="#707590" opacity="1.000000" stroke="none" 
	d="
M92.375610,92.933830 
	C92.479851,92.329468 92.952942,92.064606 93.748047,92.647690 
	C93.496010,92.875275 93.088524,92.943237 92.375610,92.933830 
z"/>
<path fill="#C5B36B" opacity="1.000000" stroke="none" 
	d="
M137.945099,51.026577 
	C137.656754,51.341629 137.405991,51.313526 137.155243,51.285427 
	C137.293228,50.907349 137.431198,50.529270 137.785049,50.072224 
	C137.994843,50.223312 137.988770,50.453369 137.945099,51.026577 
z"/>
<path fill="#666583" opacity="1.000000" stroke="none" 
	d="
M62.307510,79.027145 
	C62.088192,78.787491 62.074154,78.543137 62.016212,77.930984 
	C62.395771,77.905594 62.819237,78.247986 63.284721,78.859169 
	C63.053726,79.105911 62.782413,79.070740 62.307510,79.027145 
z"/>
<path fill="#8EB9CA" opacity="1.000000" stroke="none" 
	d="
M73.262840,86.981964 
	C73.184746,86.756233 73.385582,86.551094 73.881187,86.407578 
	C73.943542,86.637993 73.732147,86.815781 73.262840,86.981964 
z"/>
<path fill="#5C5274" opacity="1.000000" stroke="none" 
	d="
M132.359863,87.760178 
	C132.059906,87.769958 132.093185,87.412407 132.061951,87.236099 
	C132.284210,87.003815 132.537704,86.947845 133.175980,86.951813 
	C133.260437,87.257973 132.960114,87.504189 132.359863,87.760178 
z"/>
<path fill="#A7CED0" opacity="1.000000" stroke="none" 
	d="
M126.915230,69.894371 
	C127.109940,70.112556 127.534637,70.364883 127.479706,70.603607 
	C127.144791,70.861084 126.864807,70.879837 126.164207,70.877396 
	C125.799927,70.662720 125.856270,70.469231 126.024765,69.995010 
	C126.331444,69.701599 126.525978,69.688896 126.915230,69.894371 
z"/>
<path fill="#ADD2C4" opacity="1.000000" stroke="none" 
	d="
M70.103638,72.426651 
	C70.154205,72.241852 70.322617,72.181129 70.758293,72.141418 
	C70.757530,72.291862 70.489510,72.421288 70.103638,72.426651 
z"/>
<path fill="#8CBA8A" opacity="1.000000" stroke="none" 
	d="
M113.046768,80.099525 
	C112.972954,80.035049 113.335716,80.175461 113.335716,80.175461 
	C113.335716,80.175461 113.120575,80.164001 113.046768,80.099525 
z"/>
<path fill="#8CBA8A" opacity="1.000000" stroke="none" 
	d="
M112.166260,78.847870 
	C112.470497,79.018524 112.686417,79.274399 112.937645,79.782669 
	C112.972954,80.035049 112.999542,80.004562 113.015419,79.992142 
	C112.688828,79.933861 112.402977,79.781677 112.039993,79.315834 
	C111.906242,79.108521 112.077942,78.933090 112.166260,78.847870 
z"/>
<path fill="#9FF1FF" opacity="1.000000" stroke="none" 
	d="
M225.776794,92.186249 
	C225.815567,92.540993 225.631943,93.083656 225.223480,93.812103 
	C225.183914,93.456642 225.369141,92.915398 225.776794,92.186249 
z"/>
<path fill="#294648" opacity="1.000000" stroke="none" 
	d="
M105.900902,66.571091 
	C104.944550,66.984795 103.999802,66.983948 102.705399,66.974701 
	C101.038040,61.567757 103.077454,56.186256 102.651703,50.276115 
	C98.779671,52.211548 97.584641,54.904041 98.092865,58.694466 
	C98.798370,63.956207 96.829567,67.705559 91.191452,69.520798 
	C89.737625,70.112160 88.659454,70.174713 87.396736,69.122147 
	C86.420601,66.952744 85.780060,65.114128 86.245453,62.728542 
	C86.125046,61.488903 86.561188,60.895149 87.560364,60.257423 
	C88.646461,60.008816 89.380066,59.887268 90.431725,60.233841 
	C91.540962,60.371941 91.177719,62.252823 92.496735,61.146233 
	C92.612869,59.152225 90.298500,58.663963 90.503403,56.555820 
	C90.316750,55.001530 90.840271,54.066940 91.908951,53.035557 
	C92.884605,52.135780 92.824753,51.357788 92.252739,50.276100 
	C91.783989,45.596600 88.490456,46.264904 85.557129,45.993927 
	C83.505241,45.804382 79.975082,47.119080 81.031631,42.292854 
	C83.800064,38.956799 87.188202,41.757195 90.362839,40.617100 
	C91.907417,39.223824 93.690155,37.803295 94.519783,40.256157 
	C95.757935,43.916855 98.178207,42.785057 100.887466,42.308739 
	C101.685303,41.337250 101.436180,40.538658 101.395599,39.450150 
	C102.404472,39.088219 103.342323,39.022209 104.749107,38.923851 
	C109.453453,36.215996 110.448700,31.598143 112.338768,27.118061 
	C113.073105,26.893827 113.585289,26.935061 114.482193,26.995163 
	C115.043350,27.148043 115.219788,27.282053 115.526558,27.721870 
	C115.843338,28.963465 115.261642,29.716805 115.025871,30.886044 
	C112.186203,33.176762 111.559036,36.607246 109.669449,39.201038 
	C108.435005,40.895527 109.254105,41.933514 111.654678,41.982727 
	C114.281654,40.734566 116.545708,39.589443 119.462639,41.438885 
	C122.881500,42.141216 125.900078,42.074718 128.962814,41.351925 
	C130.894928,40.895958 133.280655,40.232864 134.262054,43.570770 
	C134.384552,44.216755 134.442352,44.469067 134.382309,45.091137 
	C133.813400,46.096081 133.256805,46.616978 132.238220,47.152718 
	C129.093903,47.224049 127.769463,48.385223 127.832870,51.385017 
	C127.929482,55.955746 127.472359,60.541676 128.472778,65.440887 
	C128.549820,66.053307 128.541183,66.304131 128.396088,66.909401 
	C127.564674,68.135155 126.642525,68.448242 125.185966,68.279694 
	C124.079941,66.754112 123.136955,65.378990 122.650017,63.857883 
	C120.848457,58.230171 120.082344,57.979477 115.639290,61.933929 
	C115.153122,62.366627 114.750420,62.893127 114.168411,63.686974 
	C113.668633,64.384018 113.226379,64.600868 112.327995,64.574829 
	C111.159172,64.341820 110.568695,63.921154 110.164398,62.788078 
	C110.047195,61.082428 110.630577,60.005337 111.707840,58.763836 
	C112.252655,58.155449 112.587875,57.838585 113.185204,57.337891 
	C113.708313,56.893394 113.945351,56.619926 113.978409,56.044975 
	C113.493011,55.381287 113.014740,55.074089 112.311539,54.525043 
	C111.134567,53.260406 109.895073,52.473339 109.213692,50.757046 
	C109.089600,46.962547 111.157471,46.770454 114.097740,47.484684 
	C115.896896,47.850128 116.965363,49.086372 118.715569,49.210197 
	C118.946640,49.198284 119.325058,49.078537 119.448647,48.957977 
	C119.527534,48.563869 119.389717,48.348511 118.930283,48.063843 
	C116.695328,47.049934 114.452744,47.835377 112.096924,47.024368 
	C110.534889,47.047363 109.196144,46.196388 108.038322,47.748703 
	C107.756432,49.085918 107.723366,50.146446 107.524734,51.517029 
	C107.494804,52.293289 107.488564,52.740395 107.485458,53.530937 
	C107.484543,54.336666 107.483437,54.799007 107.482002,55.612907 
	C107.481255,56.437080 107.478867,56.909691 107.471313,57.741203 
	C107.457245,58.582241 107.430344,59.063446 107.318100,59.902435 
	C107.056419,60.712341 106.798317,61.122196 106.216171,61.749702 
	C105.942688,63.391312 105.927597,64.773918 105.900902,66.571091 
z"/>
<path fill="#CADF63" opacity="1.000000" stroke="none" 
	d="
M90.305336,40.263710 
	C91.233093,42.218925 90.323135,42.750088 88.695702,42.619987 
	C86.445793,42.440125 84.198341,42.229462 81.545784,41.999752 
	C77.619553,39.270184 73.987617,36.702843 70.601738,33.844078 
	C65.900490,29.874725 61.845280,25.321182 59.125839,19.307888 
	C59.448048,18.714836 59.924965,18.431803 60.685818,18.099422 
	C71.385414,24.438065 80.803864,32.136650 90.305336,40.263710 
z"/>
<path fill="#C9DE63" opacity="1.000000" stroke="none" 
	d="
M93.061081,52.643414 
	C92.912834,54.171822 92.169899,54.831100 91.076218,55.604153 
	C90.875877,56.069614 90.809334,56.255550 90.499222,56.272877 
	C85.144318,54.200623 79.579895,53.549118 74.878807,50.506771 
	C72.842903,49.189213 70.527161,48.206055 68.797623,45.093159 
	C77.501556,45.257889 83.994789,49.956451 91.605476,52.160866 
	C92.405449,51.811165 92.789200,51.845428 93.061081,52.643414 
z"/>
<path fill="#C7DD61" opacity="1.000000" stroke="none" 
	d="
M88.057518,60.699982 
	C87.391136,61.281696 87.036736,61.663445 86.472580,62.202538 
	C82.561577,61.765049 78.807449,61.342506 75.562317,58.683426 
	C79.577339,57.750572 83.595886,57.671120 88.012039,58.814384 
	C88.539040,59.544796 88.548775,60.022240 88.057518,60.699982 
z"/>
<path fill="#C6DD61" opacity="1.000000" stroke="none" 
	d="
M86.860077,68.982269 
	C88.134949,69.031433 89.111702,69.287407 90.464615,69.618721 
	C88.738419,73.481613 85.212349,73.645561 80.636505,74.088943 
	C82.540573,71.178612 84.727173,70.396912 86.860077,68.982269 
z"/>
<path fill="#2E4A49" opacity="1.000000" stroke="none" 
	d="
M88.160278,60.925995 
	C87.879112,60.492725 88.012680,60.085503 88.256592,59.372963 
	C88.936363,58.272427 89.505798,57.477211 90.165436,56.393127 
	C90.255653,56.104263 90.597252,55.988113 90.769836,55.935898 
	C90.443626,58.732166 95.821007,57.007267 94.309128,60.728607 
	C93.414482,61.585167 92.631111,61.784294 91.404068,61.294449 
	C90.235542,61.009949 89.405273,60.980999 88.160278,60.925995 
z"/>
<path fill="#2E4A49" opacity="1.000000" stroke="none" 
	d="
M93.264206,52.948952 
	C92.722313,52.871170 92.490616,52.699368 92.137909,52.334312 
	C92.004471,51.701187 92.023544,51.218845 92.060852,50.376091 
	C92.707886,50.904705 95.717369,50.584431 93.264206,52.948952 
z"/>
<path fill="#9BEBF7" opacity="1.000000" stroke="none" 
	d="
M98.625336,73.060303 
	C98.836411,73.386047 98.661804,73.651649 98.160545,73.919853 
	C98.062355,73.676308 98.197609,73.368874 98.625336,73.060303 
z"/>
<path fill="#9BEBF7" opacity="1.000000" stroke="none" 
	d="
M97.641037,73.878593 
	C97.814102,74.246727 97.648582,74.566643 97.204010,74.926086 
	C97.050789,74.587204 97.176620,74.208786 97.641037,73.878593 
z"/>
<path fill="#CAE064" opacity="1.000000" stroke="none" 
	d="
M120.009598,41.495964 
	C117.502289,41.857533 115.197952,41.953518 112.458893,41.992958 
	C118.131973,34.799671 125.710083,29.630119 134.270615,25.618338 
	C131.418610,32.468857 125.975060,36.989658 120.009598,41.495964 
z"/>
<path fill="#9FDDDA" opacity="1.000000" stroke="none" 
	d="
M115.300560,31.081619 
	C113.423317,30.342913 114.151825,29.428682 115.050476,28.191032 
	C115.500603,27.555185 115.883247,27.299818 116.646538,27.041834 
	C116.988289,26.980927 117.336754,26.930136 117.512825,26.931046 
	C117.910934,26.797867 118.132980,26.663780 118.669769,26.758427 
	C117.857986,28.308279 116.731461,29.629396 115.300560,31.081619 
z"/>
<path fill="#9BEBF7" opacity="1.000000" stroke="none" 
	d="
M119.202179,26.878986 
	C118.768967,26.974497 118.553421,26.961832 118.013382,26.940561 
	C117.925385,26.066004 118.161873,25.200054 118.574196,24.042458 
	C119.131271,24.281857 119.512520,24.812902 119.945984,25.673416 
	C119.882912,26.317228 119.690125,26.573204 119.202179,26.878986 
z"/>
<path fill="#9BEBF7" opacity="1.000000" stroke="none" 
	d="
M134.294464,45.193192 
	C134.046280,44.784306 134.084183,44.615604 134.224426,44.205673 
	C134.757141,43.798042 135.187500,43.631645 135.823975,43.749390 
	C136.124374,44.202309 136.218643,44.371086 136.118835,44.755314 
	C135.547363,45.330406 135.095795,45.474445 134.294464,45.193192 
z"/>
<path fill="#A0C69A" opacity="1.000000" stroke="none" 
	d="
M112.988785,18.396893 
	C113.069954,18.069721 113.531448,18.036428 113.762741,18.034992 
	C113.994041,18.033556 114.153595,18.464621 114.189545,18.691616 
	C114.282898,19.116447 114.340286,19.314283 114.272591,19.794655 
	C113.940247,20.941238 113.732979,21.805283 113.319809,22.938263 
	C111.832268,21.768631 112.791466,20.226952 112.988785,18.396893 
z"/>
<path fill="#B4CF5C" opacity="1.000000" stroke="none" 
	d="
M111.765045,64.360291 
	C112.510941,64.188278 112.948524,64.167717 113.706970,64.072495 
	C115.122200,64.802155 116.811348,64.895866 117.207405,66.646423 
	C115.262817,67.553200 113.835388,66.458893 112.146973,65.277138 
	C111.769043,64.846748 111.612892,64.679245 111.765045,64.360291 
z"/>
<path fill="#78AE37" opacity="1.000000" stroke="none" 
	d="
M111.795952,64.021988 
	C112.073349,64.208839 112.024055,64.615829 111.974625,64.815033 
	C110.180550,65.019020 108.615913,64.726707 108.272873,62.110054 
	C109.070816,61.225479 109.699173,61.226101 110.551727,61.758606 
	C111.023254,62.610046 111.270905,63.222595 111.795952,64.021988 
z"/>
<path fill="#3E5860" opacity="1.000000" stroke="none" 
	d="
M124.948868,68.408737 
	C125.648331,67.841774 126.483063,67.487305 127.655449,67.104736 
	C128.320404,67.368408 128.516846,67.731064 128.503067,68.474152 
	C128.193359,69.150589 127.887199,69.432915 127.262184,69.837158 
	C127.030952,70.056870 127.090797,70.056808 127.100372,70.084686 
	C126.966179,69.999428 126.822426,69.886299 126.407784,69.743729 
	C125.785980,69.349945 125.435051,68.985588 124.948868,68.408737 
z"/>
<path fill="#78AE37" opacity="1.000000" stroke="none" 
	d="
M106.297928,62.007133 
	C105.937698,61.556431 105.917618,61.104156 105.965790,60.318527 
	C107.459435,59.198750 108.176109,59.767010 108.213150,61.615120 
	C108.003990,61.995651 108.000198,61.999805 107.998711,62.001312 
	C107.544174,62.003731 107.091125,62.004646 106.297928,62.007133 
z"/>
<path fill="#98D3C8" opacity="1.000000" stroke="none" 
	d="
M101.245667,39.011486 
	C101.525589,40.183090 104.066292,40.858440 101.561401,42.154446 
	C100.174263,40.952881 99.126793,39.800999 97.897385,38.373154 
	C97.943451,37.908134 98.171478,37.719078 98.800552,37.721249 
	C99.809303,38.231232 100.417015,38.549988 101.245667,39.011486 
z"/>
<path fill="#A2DFC3" opacity="1.000000" stroke="none" 
	d="
M97.346535,35.895340 
	C97.842865,36.479431 97.783897,36.740623 97.306366,36.977585 
	C95.453026,36.939056 94.428932,35.992931 93.839386,34.305355 
	C94.993698,34.518650 95.993912,35.068218 97.346535,35.895340 
z"/>
<path fill="#9CD6AE" opacity="1.000000" stroke="none" 
	d="
M85.067398,28.434126 
	C86.189651,27.908571 87.063728,28.548950 87.944626,29.646185 
	C86.643402,30.556803 85.777519,29.966015 85.067398,28.434126 
z"/>
<path fill="#A2DFC3" opacity="1.000000" stroke="none" 
	d="
M90.943848,32.339748 
	C92.277451,31.774118 93.007019,32.674824 93.934845,33.686981 
	C92.459373,34.854927 91.704956,33.701900 90.943848,32.339748 
z"/>
<path fill="#A2DFC3" opacity="1.000000" stroke="none" 
	d="
M99.016235,37.576904 
	C98.954254,37.944584 98.706917,37.976696 98.087509,38.052998 
	C97.463104,37.874775 97.210785,37.652359 96.997513,37.173302 
	C97.844055,35.867661 98.272141,36.915493 99.016235,37.576904 
z"/>
<path fill="#A2DFC3" opacity="1.000000" stroke="none" 
	d="
M89.631454,30.740589 
	C90.398186,31.067146 90.700462,31.255846 91.019699,31.716423 
	C90.238663,32.411613 89.572746,32.027351 88.627068,31.379353 
	C88.620201,30.946693 88.893593,30.774712 89.631454,30.740589 
z"/>
<path fill="#9CD6AE" opacity="1.000000" stroke="none" 
	d="
M89.910599,30.638447 
	C89.805771,30.921825 89.515640,30.965206 88.786148,31.063629 
	C88.004631,30.988850 87.796814,30.744505 87.877243,30.185684 
	C88.595848,30.123301 89.160576,30.260874 89.910599,30.638447 
z"/>
<path fill="#9CD6AE" opacity="1.000000" stroke="none" 
	d="
M81.943024,27.340645 
	C82.106346,27.091234 82.486038,27.044697 83.149445,26.967791 
	C83.433174,26.937422 83.692589,27.306597 83.780418,27.509766 
	C83.298630,27.656462 82.729004,27.599989 81.943024,27.340645 
z"/>
<path fill="#A7D8CC" opacity="1.000000" stroke="none" 
	d="
M127.904724,69.135170 
	C127.691635,68.459282 127.833832,68.074348 127.984573,67.383026 
	C127.993103,67.076622 128.087799,67.101440 128.115082,67.060799 
	C128.220551,61.826969 129.456909,56.685852 128.509720,51.428890 
	C128.108887,49.204281 129.180084,47.259602 131.865692,46.143311 
	C132.637680,45.646168 133.082230,45.393074 133.767593,45.046490 
	C134.434235,44.950958 134.860092,44.948914 135.605347,44.958817 
	C133.466461,47.969898 130.488754,50.811806 132.914062,55.627869 
	C132.947891,57.390125 132.878464,58.782471 132.834167,60.593338 
	C132.536911,62.081947 132.214508,63.152027 131.818237,64.551239 
	C131.489975,65.386940 131.235611,65.893494 130.963165,66.697632 
	C130.482712,67.571716 130.020340,68.148224 129.325226,68.881439 
	C128.815002,69.167465 128.537506,69.296799 127.904724,69.135170 
z"/>
<path fill="#D3D428" opacity="1.000000" stroke="none" 
	d="
M116.885468,26.783554 
	C116.562912,27.273975 116.137527,27.567026 115.434509,27.864460 
	C115.156868,27.868841 115.008293,27.442556 114.937599,27.228294 
	C115.107796,26.714598 115.348686,26.415165 115.874451,26.038147 
	C116.415627,26.120749 116.623398,26.329290 116.885468,26.783554 
z"/>
<path fill="#51727F" opacity="1.000000" stroke="none" 
	d="
M114.270905,19.957470 
	C114.126221,19.881920 114.104935,19.686649 114.154579,19.204994 
	C114.322632,19.118464 114.442696,19.311426 114.505806,19.521500 
	C114.531784,19.607943 114.435165,19.731222 114.270905,19.957470 
z"/>
<path fill="#D09A21" opacity="1.000000" stroke="none" 
	d="
M69.137482,61.250828 
	C69.321640,61.180813 69.653999,61.309456 70.052032,61.704872 
	C69.794113,61.871284 69.516762,61.697231 69.137482,61.250828 
z"/>
<path fill="#A7CED0" opacity="1.000000" stroke="none" 
	d="
M127.338211,68.986328 
	C127.806404,68.878281 128.063370,68.912338 128.706421,68.992264 
	C128.582809,69.557144 128.073135,70.076157 127.297211,70.326019 
	C127.062965,69.747398 127.094971,69.437920 127.338211,68.986328 
z"/>
<path fill="#5C5274" opacity="1.000000" stroke="none" 
	d="
M131.900208,83.405502 
	C132.104446,83.017433 132.324600,83.000435 132.872345,82.923599 
	C133.522369,83.917183 133.627136,84.938812 132.385529,85.910744 
	C131.974045,85.260101 131.945099,84.518333 131.900208,83.405502 
z"/>
<path fill="#9BEBF7" opacity="1.000000" stroke="none" 
	d="
M63.976585,81.846191 
	C63.387566,82.425476 62.634663,83.320442 62.052578,82.557518 
	C61.513119,81.850456 62.316597,81.200409 63.430588,80.819046 
	C63.892300,81.070473 63.936691,81.350807 63.976585,81.846191 
z"/>
<path fill="#9BEBF7" opacity="1.000000" stroke="none" 
	d="
M67.900146,87.499146 
	C67.549561,87.767937 67.101730,87.793892 66.327087,87.900909 
	C66.259514,86.891426 66.461899,85.659630 67.900146,87.499146 
z"/>
<path fill="#6BA932" opacity="1.000000" stroke="none" 
	d="
M131.747559,45.864769 
	C129.903595,48.045341 129.500626,50.539898 130.338364,53.548824 
	C131.592865,58.054619 130.926773,62.432369 128.412567,66.785934 
	C124.074036,60.972141 125.929405,54.293255 126.367462,47.862514 
	C126.543411,45.279518 129.411850,45.996887 131.747559,45.864769 
z"/>
<path fill="#67A330" opacity="1.000000" stroke="none" 
	d="
M107.011368,52.548351 
	C106.527802,50.995628 106.382950,49.594757 106.247078,47.766022 
	C107.130875,45.679691 108.811844,45.834114 110.656593,45.684746 
	C114.077324,45.874752 117.135864,45.922379 120.650375,46.039913 
	C120.513962,49.497692 117.831894,48.937531 115.122215,49.110535 
	C113.103882,49.201092 110.722794,45.615726 110.054016,50.491512 
	C109.771530,52.356716 108.763306,52.827705 107.011368,52.548351 
z"/>
<path fill="#C3DC5F" opacity="1.000000" stroke="none" 
	d="
M114.950989,49.458717 
	C116.673920,48.288219 118.619255,47.424248 120.835464,46.335052 
	C123.070908,47.006432 121.995865,48.582222 121.898926,50.289520 
	C121.695877,51.139679 121.372910,51.415771 120.518265,51.499527 
	C118.502205,50.933601 116.837791,50.349422 114.950989,49.458717 
z"/>
<path fill="#CADF63" opacity="1.000000" stroke="none" 
	d="
M106.560883,58.109501 
	C106.279305,57.441914 106.276421,57.109379 106.314590,56.530209 
	C108.549850,53.213478 111.633087,55.166698 114.742432,54.801613 
	C116.208496,54.731411 117.377792,55.213280 117.387924,56.102943 
	C117.402954,57.424061 115.638916,57.352268 114.585770,58.333252 
	C113.997314,58.469231 113.709412,58.461739 113.014557,58.601971 
	C110.622879,59.821011 108.702057,59.684132 106.560883,58.109501 
z"/>
<path fill="#6EAA31" opacity="1.000000" stroke="none" 
	d="
M106.189957,58.135994 
	C108.232346,57.913322 110.182503,58.052189 112.550095,58.250488 
	C113.110886,58.438999 113.254242,58.568089 113.226334,58.930412 
	C112.402039,59.934956 111.749008,60.706261 110.935791,61.737530 
	C110.082970,61.995876 109.390335,61.994255 108.350845,61.994144 
	C107.878189,61.131721 107.560654,60.406403 106.338959,60.049736 
	C106.055275,59.489288 106.076500,58.993412 106.189957,58.135994 
z"/>
<path fill="#67A330" opacity="1.000000" stroke="none" 
	d="
M114.970016,54.491898 
	C112.868874,57.198799 109.793076,55.402336 106.771851,56.234360 
	C106.343132,55.708996 106.330627,55.134418 106.424347,54.141006 
	C108.389664,52.626003 110.312843,52.500221 112.677315,53.549927 
	C113.627869,53.924030 114.200966,54.089424 114.970016,54.491898 
z"/>
<path fill="#C3DC5F" opacity="1.000000" stroke="none" 
	d="
M112.925896,53.491333 
	C111.143578,53.775917 109.232391,53.793201 106.925880,53.766331 
	C106.471046,53.422478 106.474937,53.123615 106.607452,52.611046 
	C107.627945,51.990330 108.583237,51.584164 109.809494,51.015213 
	C111.242661,51.348961 112.163017,52.122490 112.925896,53.491333 
z"/>
<path fill="#5D973F" opacity="1.000000" stroke="none" 
	d="
M90.945038,61.362957 
	C91.822845,61.008930 92.579880,60.978951 93.717651,60.962990 
	C94.038376,61.630325 94.139511,62.355625 93.886246,62.922619 
	C93.279137,64.281769 92.340820,66.016159 90.723198,65.233391 
	C89.276558,64.533356 90.441673,62.895157 90.945038,61.362957 
z"/>
<path fill="#94B459" opacity="1.000000" stroke="none" 
	d="
M95.193970,48.993858 
	C94.975739,47.583408 94.870262,46.384022 96.537872,46.392712 
	C97.293320,46.396645 98.266411,46.420086 98.357727,47.442764 
	C98.454750,48.529503 97.611794,49.108627 96.492691,49.750298 
	C95.882698,49.773956 95.575027,49.549774 95.193970,48.993858 
z"/>
<path fill="#41654C" opacity="1.000000" stroke="none" 
	d="
M110.727173,45.625175 
	C109.655991,46.259651 108.293205,46.692177 106.593239,47.231426 
	C106.421494,44.020206 108.602928,45.102367 110.727173,45.625175 
z"/>
<path fill="#41654C" opacity="1.000000" stroke="none" 
	d="
M120.372269,51.655415 
	C120.524696,51.300091 120.882782,51.082409 121.539841,50.758865 
	C121.798347,51.453114 121.444679,51.906818 120.372269,51.655415 
z"/>
<path fill="#2E4A49" opacity="1.000000" stroke="none" 
	d="
M95.182983,49.002651 
	C95.358238,48.972263 95.647377,49.211754 96.089188,49.689362 
	C95.926857,49.709160 95.611855,49.490841 95.182983,49.002651 
z"/>
<path fill="#78AE37" opacity="1.000000" stroke="none" 
	d="
M113.278030,59.080383 
	C113.055069,59.163651 113.010910,58.735588 112.989220,58.522751 
	C113.191322,58.302254 113.415123,58.294594 113.962067,58.381828 
	C114.080345,58.735390 113.818939,58.908855 113.278030,59.080383 
z"/>
</svg>